<?xml version="1.0" encoding="UTF-8" standalone="no"?>
<!-- Created with Inkscape (http://www.inkscape.org/) -->

<svg
   width="154.46883mm"
   height="151.42145mm"
   viewBox="0 0 154.46883 151.42145"
   version="1.1"
   id="svg5"
   inkscape:version="1.1.2 (0a00cf5339, 2022-02-04, custom)"
   sodipodi:docname="github.svg"
   xmlns:inkscape="http://www.inkscape.org/namespaces/inkscape"
   xmlns:sodipodi="http://sodipodi.sourceforge.net/DTD/sodipodi-0.dtd"
   xmlns="http://www.w3.org/2000/svg"
   xmlns:svg="http://www.w3.org/2000/svg">
  <sodipodi:namedview
     id="namedview7"
     pagecolor="#ffffff"
     bordercolor="#666666"
     borderopacity="1.0"
     inkscape:pageshadow="2"
     inkscape:pageopacity="0.0"
     inkscape:pagecheckerboard="0"
     inkscape:document-units="mm"
     showgrid="false"
     fit-margin-top="0"
     fit-margin-left="0"
     fit-margin-right="0"
     fit-margin-bottom="0"
     inkscape:zoom="0.61501833"
     inkscape:cx="504.863"
     inkscape:cy="382.10243"
     inkscape:window-width="1920"
     inkscape:window-height="1048"
     inkscape:window-x="1366"
     inkscape:window-y="0"
     inkscape:window-maximized="1"
     inkscape:current-layer="layer1" />
  <defs
     id="defs2" />
  <g
     inkscape:label="Layer 1"
     inkscape:groupmode="layer"
     id="layer1"
     transform="translate(-24.366648,-46.534556)">
    <g
       id="g836"
       transform="matrix(0.8,0,0,0.8,18.420068,5.0662227)"
       style="fill:#1a1a1a">
      <path
         style="fill:#1a1a1a;fill-opacity:1;stroke-width:1.30153"
         d="M 68.734104,216.77169 C 42.749401,203.76593 26.741829,177.54903 26.741829,147.99752 c 0,-21.25989 7.626969,-39.74745 22.556973,-54.677453 14.930003,-14.93 33.417553,-22.55697 54.677438,-22.55697 21.25989,0 39.74744,7.62697 54.67744,22.55697 14.93001,14.930003 22.55698,33.417563 22.55698,54.677453 0,29.80425 -16.07952,55.91789 -42.48974,69.00467 -14.87664,7.37166 -15.2191,7.09683 -15.2298,-12.22224 -0.006,-9.99378 -0.58318,-15.58537 -1.86366,-18.03997 -2.11243,-4.04938 -1.95288,-4.22236 5.06496,-5.49125 11.97909,-2.16593 22.41083,-11.37994 25.55072,-22.5681 2.76329,-9.84624 2.11089,-22.04398 -1.54616,-28.90818 -2.31356,-4.3425 -3.14769,-8.04023 -3.23188,-14.32699 -0.0624,-4.6606 -0.81822,-9.79064 -1.67957,-11.40009 -1.89526,-3.54132 -5.15864,-3.10454 -15.77875,2.11189 -5.25482,2.58108 -8.19671,3.28804 -11.06298,2.6585 -5.04858,-1.10886 -24.886528,-1.10886 -29.935114,0 -2.866266,0.62954 -5.808156,-0.0774 -11.062977,-2.6585 -10.620112,-5.21643 -13.883493,-5.65321 -15.778752,-2.11189 -0.861353,1.60945 -1.61716,6.73949 -1.679571,11.40009 -0.08496,6.34475 -0.908035,9.94536 -3.27587,14.33068 -3.690581,6.83509 -4.31635,18.87643 -1.50212,28.90449 3.139785,11.18811 13.571557,20.40217 25.550668,22.5681 7.153442,1.29341 7.151439,1.29018 4.373204,7.04047 -1.972019,4.08161 -3.400243,5.31617 -6.912329,5.97504 -5.865098,1.1003 -12.248151,-2.01834 -16.29254,-7.96023 -1.734042,-2.5476 -4.779814,-5.47336 -6.768381,-6.50169 -7.846017,-4.05733 -12.329616,-0.64341 -5.596505,4.26132 1.844945,1.34395 4.919802,5.29831 6.833015,8.78747 5.117779,9.33338 9.081689,11.76282 19.192332,11.76282 h 8.364483 v 7.22347 c 0,6.47759 -1.501193,10.34714 -4.014176,10.34714 -0.48978,0 -5.757058,-2.43578 -11.705063,-5.41285 z"
         id="path838" />
    </g>
  </g>
</svg>
