<?xml version="1.0" encoding="UTF-8" standalone="no"?>
<!-- Created with Inkscape (http://www.inkscape.org/) -->

<svg
   width="150.86349mm"
   height="191.39861mm"
   viewBox="0 0 150.86349 191.39861"
   version="1.1"
   id="svg5"
   inkscape:version="1.1.2 (0a00cf5339, 2022-02-04, custom)"
   sodipodi:docname="utem.svg"
   xmlns:inkscape="http://www.inkscape.org/namespaces/inkscape"
   xmlns:sodipodi="http://sodipodi.sourceforge.net/DTD/sodipodi-0.dtd"
   xmlns="http://www.w3.org/2000/svg"
   xmlns:svg="http://www.w3.org/2000/svg">
  <sodipodi:namedview
     id="namedview7"
     pagecolor="#ffffff"
     bordercolor="#666666"
     borderopacity="1.0"
     inkscape:pageshadow="2"
     inkscape:pageopacity="0.0"
     inkscape:pagecheckerboard="0"
     inkscape:document-units="mm"
     showgrid="false"
     fit-margin-top="0"
     fit-margin-left="0"
     fit-margin-right="0"
     fit-margin-bottom="0"
     inkscape:zoom="0.42143165"
     inkscape:cx="698.80846"
     inkscape:cy="476.94567"
     inkscape:window-width="1920"
     inkscape:window-height="1048"
     inkscape:window-x="1366"
     inkscape:window-y="0"
     inkscape:window-maximized="1"
     inkscape:current-layer="layer1" />
  <defs
     id="defs2" />
  <g
     inkscape:label="Layer 1"
     inkscape:groupmode="layer"
     id="layer1"
     transform="translate(-24.12044,-38.639413)">
    <path
       style="fill:#1a1a1a;stroke-width:0.284704"
       d="m 50.713668,210.76278 c -2.297504,-0.27394 -4.423152,-1.04816 -5.567843,-2.02797 -1.806168,-1.54601 -1.976808,-2.20028 -1.976808,-7.57948 0,-2.57852 -0.120168,-5.0043 -0.267048,-5.39061 -0.256072,-0.67351 -0.92816,-1.00477 -2.947512,-1.45274 -1.922144,-0.42641 -0.0879,-0.67728 4.923704,-0.67343 5.042723,0.004 6.551043,0.21766 4.583867,0.64973 -1.676512,0.36822 -1.870784,0.91553 -1.971272,5.55369 -0.108328,4.99995 0.155552,6.25701 1.621072,7.72254 1.318704,1.3187 3.383952,1.9619 6.299456,1.9619 2.808424,0 4.866288,-0.62216 6.278824,-1.89829 1.588456,-1.43508 1.977584,-2.96669 1.977584,-7.78368 0,-3.67252 -0.03536,-3.91775 -0.647448,-4.4928 -0.356096,-0.33454 -1.316976,-0.75184 -2.13528,-0.92734 -0.818304,-0.17549 -1.487824,-0.42046 -1.487824,-0.54438 0,-0.12392 1.921752,-0.23039 4.270552,-0.23658 2.396856,-0.006 4.27056,0.10289 4.27056,0.24891 0,0.14308 -0.256232,0.26016 -0.569408,0.26016 -0.313176,0 -0.805816,0.23641 -1.094768,0.52536 -0.450344,0.45034 -0.549296,1.17192 -0.693032,5.05349 -0.114512,3.09246 -0.3164,4.95367 -0.636744,5.87027 -0.612648,1.75298 -2.356952,3.47088 -4.239368,4.17518 -2.490424,0.93178 -6.843416,1.3614 -9.991264,0.98607 z m 28.76776,-0.36176 c -0.17588,-0.28457 0.228944,-0.43669 1.92496,-0.72327 2.157896,-0.36464 2.190576,-0.47861 2.190576,-7.63905 0,-4.55842 -0.09635,-6.44524 -0.341648,-6.69053 -0.219472,-0.21948 -1.344408,-0.34165 -3.14588,-0.34165 -3.319096,0 -4.218184,0.35539 -5.056576,1.99879 -0.379888,0.74463 -0.771168,1.13295 -1.141608,1.13295 -0.31,0 -0.563624,-0.0578 -0.563624,-0.12833 0,-0.11662 0.411776,-2.25871 0.719784,-3.74437 0.123792,-0.5971 0.153456,-0.59854 11.716432,-0.56941 l 11.592328,0.0292 0.32196,1.78034 c 0.177072,0.97918 0.258312,1.84397 0.180536,1.92175 -0.364448,0.36445 -0.925696,0.0646 -1.325192,-0.70788 -0.708336,-1.36979 -1.725896,-1.71304 -5.07816,-1.71304 -2.215624,0 -3.05368,0.10244 -3.303816,0.40384 -0.240848,0.2902 -0.310744,2.17751 -0.248392,6.70726 l 0.08677,6.30343 0.71176,0.546 c 0.391464,0.30032 1.445984,0.69332 2.343376,0.87336 0.897392,0.18005 1.56244,0.43929 1.477888,0.57609 -0.20792,0.33642 -12.853248,0.32143 -13.061472,-0.0154 z m 24.173612,0.002 c 0.0893,-0.14453 0.54514,-0.34685 1.01291,-0.4496 1.61417,-0.35453 1.70531,-0.76763 1.70531,-7.72937 0,-5.32193 -0.0696,-6.39175 -0.43986,-6.76203 -0.39797,-0.39796 -1.63452,-0.8265 -3.09869,-1.07389 -0.30204,-0.051 -0.55827,-0.22089 -0.56941,-0.37748 -0.0131,-0.18462 3.38271,-0.28471 9.65969,-0.28471 h 9.67993 v 1.85058 c 0,2.1329 -0.42373,2.43176 -1.21099,0.85411 -0.67066,-1.34401 -1.77175,-1.67246 -5.67274,-1.69215 -4.11105,-0.0207 -4.1263,-0.007 -4.01647,3.50217 l 0.0815,2.60288 2.7638,0.0813 2.76379,0.0813 1.11421,-1.00664 c 0.61282,-0.55364 1.241,-1.00662 1.39594,-1.00662 0.53563,0 0.89864,5.50416 0.38398,5.82224 -0.32173,0.19884 -1.06418,-0.51098 -1.29494,-1.23805 -0.27941,-0.88035 -1.54668,-1.19677 -4.43746,-1.10799 l -2.68932,0.0826 -0.0819,2.80948 c -0.11513,3.94986 0.051,4.16576 3.20618,4.16576 3.90824,0 6.13512,-0.64017 8.06025,-2.31711 1.12707,-0.98178 1.48513,-1.02378 1.48372,-0.17405 -0.002,1.07275 -1.01381,2.38037 -2.33863,3.0217 -1.19394,0.57798 -1.66412,0.60828 -9.43985,0.60828 -4.92834,0 -8.11873,-0.10453 -8.02091,-0.2628 z m 24.35572,0.0167 c 0,-0.13531 0.56327,-0.46114 1.25172,-0.72406 0.86011,-0.32848 1.34504,-0.71914 1.54999,-1.24867 0.33989,-0.87819 0.91912,-10.64628 0.69945,-11.79544 -0.18198,-0.95194 -0.88576,-1.59549 -2.26236,-2.06874 -0.59209,-0.20355 -1.11537,-0.48664 -1.16285,-0.62908 -0.0479,-0.14368 1.358,-0.27942 3.15763,-0.30487 2.74721,-0.0389 3.30903,0.029 3.6689,0.44262 0.23372,0.26867 2.24577,3.14692 4.47122,6.39611 2.22546,3.24918 4.15183,5.9076 4.28083,5.9076 0.129,0 2.3009,-2.87156 4.82644,-6.38124 l 4.59189,-6.38123 2.97993,-0.0138 c 1.63896,-0.008 2.97993,0.0942 2.97993,0.22631 0,0.13207 -0.57444,0.38477 -1.27653,0.56156 -2.16493,0.54513 -2.19643,0.68374 -1.77142,7.79358 0.41524,6.94635 0.46857,7.09903 2.67323,7.65418 0.67585,0.17017 1.22882,0.42232 1.22882,0.56032 0,0.138 -2.37015,0.25091 -5.26701,0.25091 -4.90604,0 -6.5008,-0.25319 -4.44244,-0.70528 0.45353,-0.0996 1.04992,-0.43008 1.3253,-0.73439 0.46597,-0.51488 0.47628,-0.87423 0.14862,-5.17924 -0.19364,-2.54427 -0.40873,-4.6826 -0.47796,-4.75183 -0.2235,-0.22349 -0.88022,0.60255 -4.73969,5.96176 -2.44769,3.39883 -3.99094,5.29182 -4.35151,5.33766 -0.43749,0.0556 -1.38972,-1.16425 -4.38916,-5.6229 -2.10675,-3.13165 -3.9324,-5.69393 -4.05703,-5.69393 -0.12461,0 -0.23629,0.2242 -0.24817,0.49824 -0.0118,0.27402 -0.11797,2.03563 -0.23578,3.91467 -0.3075,4.90453 0.0688,5.81044 2.60618,6.27411 2.26162,0.41328 0.8882,0.70114 -3.34527,0.70114 -2.42709,0 -4.4129,-0.11072 -4.4129,-0.24603 z M 92.111724,184.89513 c -24.91404,-3.40072 -44.384648,-23.03636 -47.650051,-48.05396 -0.37588,-2.87972 -0.438544,-8.76883 -0.438544,-41.210869 V 57.779273 H 99.6941 155.36505 l -0.10218,39.075602 c -0.10081,38.543935 -0.11049,39.118215 -0.71126,42.207335 -2.29745,11.81305 -7.00687,21.09668 -14.84404,29.26191 -8.94633,9.3208 -20.55564,15.09039 -33.61154,16.70425 -3.22454,0.3986 -10.60309,0.32829 -13.984306,-0.13324 z m 11.301976,-1.57185 c 7.30142,-0.58686 13.54404,-2.27892 19.89944,-5.39375 5.5504,-2.72028 9.35343,-5.4412 14.05583,-10.05637 8.83803,-8.67412 14.33331,-20.03961 15.67995,-32.4297 0.19488,-1.79302 0.30048,-15.57595 0.30048,-39.217949 V 59.772199 H 99.682732 46.01606 v 37.144063 c 0,32.012228 0.06104,37.581548 0.441656,40.310628 2.09752,15.03858 10.558248,28.56739 23.163024,37.03797 8.142472,5.47186 17.299496,8.55511 27.214952,9.16352 0.782936,0.048 1.757232,0.11044 2.165112,0.13867 0.407872,0.0282 2.393686,-0.0815 4.412896,-0.24377 z m 1.82075,-18.69142 c -2.53272,-0.26669 -7.442822,-1.34372 -10.202014,-2.23781 -3.977896,-1.28899 -10.324608,-4.47767 -13.71028,-6.88824 -3.34288,-2.3801 -9.02528,-7.95359 -11.382192,-11.16403 -5.021328,-6.83975 -8.376344,-14.61065 -10.020288,-23.20901 -0.482072,-2.5214 -0.62648,-4.60835 -0.734312,-10.61211 l -0.134224,-7.47348 h 26.081048 26.081042 v 30.89036 30.89037 l -2.49116,-0.0456 c -1.37014,-0.025 -2.93957,-0.0928 -3.48762,-0.15049 z m 6.26348,-77.101036 V 72.299169 h 15.23166 15.23166 v 15.231655 15.231656 h -15.23166 -15.23166 z"
       id="path836" />
  </g>
</svg>
